<svg xmlns="http://www.w3.org/2000/svg" viewBox="0 0 512 512">
    <path fill="currentColor" class="cls-1" d="M427.46,213.25C427.46,111.12,331.58,28,213.73,28S0,111.12,0,213.25c0,33.48,10.45,66.3,30.22,94.91l9.93,14.36-8.29,15.37L1,395l-.31.57-.34.56A3,3,0,0,0,0,397a2.81,2.81,0,0,0,1.52,1.45,5.25,5.25,0,0,0,.79-.39l.56-.34.58-.31,60.46-32.6,14.3-7.71,13.92,8.38c35.84,21.57,77.9,33,121.61,33C331.58,398.49,427.46,315.39,427.46,213.25ZM114,256a42.75,42.75,0,1,1,42.75-42.75A42.75,42.75,0,0,1,114,256Zm99.74,0a42.75,42.75,0,1,1,42.75-42.75A42.75,42.75,0,0,1,213.73,256Zm99.74,0a42.75,42.75,0,1,1,42.75-42.75A42.75,42.75,0,0,1,313.47,256Zm14.25-42.75A14.25,14.25,0,1,1,313.47,199,14.26,14.26,0,0,1,327.72,213.25Zm-199.48,0A14.25,14.25,0,1,1,114,199,14.26,14.26,0,0,1,128.24,213.25Zm99.74,0A14.25,14.25,0,1,1,213.73,199,14.26,14.26,0,0,1,228,213.25Zm284,136.2c0,24.16-7.56,47.86-21.85,68.55l-9.92,14.36,8.29,15.37,14.93,27.69-30.21-16.29-14.3-7.71L445,459.8C418.73,475.62,387.86,484,355.74,484c-52.84,0-99.61-22.71-127.9-57.36,115.34-5.85,209.05-82.9,225.53-182.1C489.08,269.19,512,307.05,512,349.45Z"/>
</svg>